<svg xmlns="http://www.w3.org/2000/svg" width="390" height="844" viewBox="0 0 390 844" role="img" aria-labelledby="title desc">
  <title id="title">LifeOS 手机端 AI 聊天</title>
  <desc id="desc">LifeOS AI 手机端聊天入口安装预览图</desc>
  <defs>
    <linearGradient id="bg" x1="0" x2="1" y1="0" y2="1">
      <stop offset="0" stop-color="#07111f"/>
      <stop offset="0.58" stop-color="#0f172a"/>
      <stop offset="1" stop-color="#111827"/>
    </linearGradient>
  </defs>
  <rect width="390" height="844" fill="url(#bg)"/>
  <rect x="22" y="24" width="346" height="796" rx="36" fill="#f8fafc"/>
  <rect x="42" y="62" width="306" height="52" rx="18" fill="#101827"/>
  <circle cx="72" cy="88" r="12" fill="#38bdf8"/>
  <text x="96" y="94" fill="#f8fafc" font-family="Arial, sans-serif" font-size="18" font-weight="700">LifeOS 手机端 AI</text>
  <rect x="42" y="136" width="118" height="32" rx="16" fill="#dbeafe"/>
  <text x="58" y="157" fill="#1e3a8a" font-family="Arial, sans-serif" font-size="13" font-weight="700">已连接电脑端</text>
  <rect x="42" y="194" width="248" height="76" rx="18" fill="#e2e8f0"/>
  <text x="62" y="225" fill="#0f172a" font-family="Arial, sans-serif" font-size="16" font-weight="700">今天先帮你整理什么？</text>
  <text x="62" y="252" fill="#475569" font-family="Arial, sans-serif" font-size="13">聊天、记忆和本地能力都在这里。</text>
  <rect x="100" y="298" width="248" height="92" rx="20" fill="#0f172a"/>
  <text x="122" y="329" fill="#f8fafc" font-family="Arial, sans-serif" font-size="15" font-weight="700">把今天的待办合并成清单</text>
  <text x="122" y="358" fill="#cbd5e1" font-family="Arial, sans-serif" font-size="13">并提醒我需要确认的动作。</text>
  <rect x="42" y="420" width="278" height="104" rx="20" fill="#e0f2fe"/>
  <text x="62" y="452" fill="#075985" font-family="Arial, sans-serif" font-size="15" font-weight="700">我会先读取你的长期记忆</text>
  <text x="62" y="481" fill="#0c4a6e" font-family="Arial, sans-serif" font-size="13">危险本地动作会单独确认。</text>
  <rect x="42" y="640" width="306" height="58" rx="22" fill="#eef2ff"/>
  <text x="68" y="675" fill="#312e81" font-family="Arial, sans-serif" font-size="15">输入消息或语音指令</text>
  <circle cx="316" cy="669" r="18" fill="#2563eb"/>
  <path d="M308 669h14M316 661v16" stroke="#fff" stroke-width="3" stroke-linecap="round"/>
  <rect x="72" y="744" width="42" height="5" rx="2.5" fill="#2563eb"/>
  <rect x="174" y="744" width="42" height="5" rx="2.5" fill="#cbd5e1"/>
  <rect x="276" y="744" width="42" height="5" rx="2.5" fill="#cbd5e1"/>
</svg>
