<svg xmlns="http://www.w3.org/2000/svg" width="390" height="844" viewBox="0 0 390 844" role="img" aria-labelledby="title desc">
  <title id="title">LifeOS 设备与连接</title>
  <desc id="desc">LifeOS AI 手机端设备、离线队列和连接状态安装预览图</desc>
  <defs>
    <linearGradient id="bg" x1="1" x2="0" y1="0" y2="1">
      <stop offset="0" stop-color="#0b1120"/>
      <stop offset="0.5" stop-color="#172554"/>
      <stop offset="1" stop-color="#0f172a"/>
    </linearGradient>
  </defs>
  <rect width="390" height="844" fill="url(#bg)"/>
  <rect x="22" y="24" width="346" height="796" rx="36" fill="#f8fafc"/>
  <text x="42" y="86" fill="#0f172a" font-family="Arial, sans-serif" font-size="25" font-weight="800">设备与连接</text>
  <text x="42" y="116" fill="#64748b" font-family="Arial, sans-serif" font-size="14">查看绑定状态、离线队列和同步进度。</text>
  <rect x="42" y="150" width="306" height="112" rx="20" fill="#dcfce7"/>
  <circle cx="76" cy="190" r="15" fill="#16a34a"/>
  <path d="m68 190 6 6 12-14" fill="none" stroke="#fff" stroke-width="4" stroke-linecap="round" stroke-linejoin="round"/>
  <text x="104" y="185" fill="#14532d" font-family="Arial, sans-serif" font-size="17" font-weight="700">电脑端在线</text>
  <text x="104" y="214" fill="#166534" font-family="Arial, sans-serif" font-size="13">公网隧道已启用，连接受保护。</text>
  <rect x="42" y="288" width="306" height="132" rx="20" fill="#eff6ff"/>
  <text x="66" y="326" fill="#1e3a8a" font-family="Arial, sans-serif" font-size="17" font-weight="700">离线队列</text>
  <text x="66" y="356" fill="#334155" font-family="Arial, sans-serif" font-size="14">待同步 2 条</text>
  <rect x="66" y="378" width="226" height="10" rx="5" fill="#bfdbfe"/>
  <rect x="66" y="378" width="146" height="10" rx="5" fill="#2563eb"/>
  <rect x="42" y="446" width="306" height="96" rx="20" fill="#fff7ed"/>
  <text x="66" y="483" fill="#9a3412" font-family="Arial, sans-serif" font-size="16" font-weight="700">需要确认的本地动作</text>
  <text x="66" y="512" fill="#7c2d12" font-family="Arial, sans-serif" font-size="13">导航、电话、短信会先显示风险。</text>
  <rect x="42" y="570" width="306" height="62" rx="20" fill="#f1f5f9"/>
  <text x="66" y="607" fill="#0f172a" font-family="Arial, sans-serif" font-size="15" font-weight="700">重新绑定这台手机</text>
  <path d="M311 596h12m-6-6v12" stroke="#2563eb" stroke-width="3" stroke-linecap="round"/>
  <rect x="42" y="654" width="306" height="62" rx="20" fill="#f1f5f9"/>
  <text x="66" y="691" fill="#0f172a" font-family="Arial, sans-serif" font-size="15" font-weight="700">清空失败队列</text>
  <path d="M310 679h15" stroke="#dc2626" stroke-width="3" stroke-linecap="round"/>
  <rect x="72" y="744" width="42" height="5" rx="2.5" fill="#cbd5e1"/>
  <rect x="174" y="744" width="42" height="5" rx="2.5" fill="#2563eb"/>
  <rect x="276" y="744" width="42" height="5" rx="2.5" fill="#cbd5e1"/>
</svg>
